<svg version="1.1" xmlns="http://www.w3.org/2000/svg" xmlns:xlink="http://www.w3.org/1999/xlink" x="0px" y="0px" viewBox="0 0 32 32" style="enable-background:new 0 0 32 32;" xml:space="preserve"  width="32" height="32" viewbox="0 0 32 32">
<path class="stshockcolor" style="fill:#AAAAAA;" d="M10.5,22.5v-2.1c-1-0.2-1.8-0.6-2.6-1.1
	l-1.5,1.5l-2.1-2.1l1.5-1.5c-0.5-0.8-0.9-1.7-1.1-2.6l0,0H2.5v-3h2.2c0.2-1,0.6-1.8,1.1-2.6L4.2,7.3l2.1-2.1l1.5,1.5
	c0.8-0.5,1.7-0.9,2.6-1.1V3.5h3v2.2c1,0.2,1.8,0.6,2.6,1.1l1.5-1.5l2.1,2.1l-1.5,1.5c0.5,0.8,0.9,1.7,1.1,2.6l0,0h2.1v3h-2.1
	c-0.2,1-0.6,1.8-1.1,2.6l1.5,1.5l-2.1,2.1l-1.5-1.5c-0.8,0.5-1.7,0.9-2.6,1.1l0,0v2.1H10.5z M12,10.5c-1.4,0-2.5,1.1-2.5,2.5
	s1.1,2.5,2.5,2.5s2.5-1.1,2.5-2.5S13.4,10.5,12,10.5z M24.5,20.5c-1.7,0-3,1.3-3,3s1.3,3,3,3s3-1.3,3-3S26.2,20.5,24.5,20.5z
	 M24.5,25c-0.8,0-1.5-0.7-1.5-1.5s0.7-1.5,1.5-1.5s1.5,0.7,1.5,1.5S25.3,25,24.5,25z" data-st="fill:#AAAAAA;"></path>
<path style="fill:#4D5152;" d="M30,24v-1h-2c-0.1-0.6-0.3-1.1-0.7-1.6l1.5-1.5L28,19.3l-1.5,1.5c-0.5-0.4-1-0.6-1.6-0.7v-2h-1v2
	c-0.6,0.1-1.1,0.3-1.6,0.7L21,19.3L20.3,20l1.5,1.5c-0.4,0.5-0.6,1-0.7,1.6h-2v1h2c0.1,0.6,0.3,1.1,0.7,1.6L20.3,27l0.7,0.7l1.5-1.5
	c0.5,0.4,1,0.6,1.6,0.7v2h1v-2c0.6-0.1,1.1-0.3,1.6-0.7l1.5,1.5l0.7-0.7l-1.5-1.5c0.4-0.5,0.6-1,0.7-1.6C28,24,30,24,30,24z
	 M24.5,26c-1.4,0-2.5-1.1-2.5-2.5s1.1-2.5,2.5-2.5s2.5,1.1,2.5,2.5S25.9,26,24.5,26z M22,15v-4h-2.3c-0.2-0.7-0.5-1.4-0.9-2.1
	l1.6-1.6l-2.8-2.8l-1.6,1.6c-0.6-0.4-1.3-0.7-2.1-0.9V3h-4v2.3C9.3,5.4,8.6,5.7,7.9,6.1L6.3,4.5L3.5,7.3l1.6,1.6
	C4.7,9.6,4.4,10.3,4.3,11H2v4h2.3c0.2,0.7,0.5,1.4,0.9,2.1l-1.6,1.6l2.8,2.8l1.6-1.6c0.6,0.4,1.3,0.7,2.1,0.9V23h4v-2.3
	c0.7-0.2,1.4-0.5,2.1-0.9l1.6,1.6l2.8-2.8l-1.6-1.6c0.4-0.6,0.7-1.3,0.9-2.1H22z M18.9,14.4c-0.2,0.9-0.5,1.7-1,2.5l-0.2,0.3
	l1.5,1.5l-1.4,1.4l-1.5-1.5l-0.3,0.2c-0.7,0.5-1.6,0.8-2.4,1L13,19.9V22h-2v-2.1l-0.4-0.1c-0.9-0.2-1.7-0.5-2.4-1l-0.3-0.2l-1.5,1.5
	l-1.4-1.4l1.5-1.5l-0.2-0.3c-0.5-0.7-0.8-1.6-1-2.4L5.1,14H3v-2h2.1l0.1-0.4c0.2-0.9,0.5-1.7,1-2.4l0.2-0.3L4.9,7.3l1.4-1.4l1.5,1.5
	l0.3-0.2c0.7-0.5,1.6-0.8,2.4-1L11,6.1V4h2v2.1l0.4,0.1c0.9,0.2,1.7,0.5,2.4,1l0.3,0.2l1.5-1.5l1.4,1.4l-1.5,1.5l0.2,0.3
	c0.5,0.7,0.8,1.6,1,2.4l0.1,0.4H21v2h-2.1L18.9,14.4z M12,10c-1.6,0-3,1.4-3,3s1.4,3,3,3s3-1.4,3-3S13.6,10,12,10z M12,15
	c-1.1,0-2-0.9-2-2s0.9-2,2-2s2,0.9,2,2S13.1,15,12,15z"></path>
</svg>