<svg xmlns="http://www.w3.org/2000/svg" xmlns:xlink="http://www.w3.org/1999/xlink" viewBox="0 0 551.49 129.5"><defs><style>.a0bb42c9-f438-41fe-8e34-cbfc0b03d0a6{fill:url(#ba55b656-1e48-45f9-96bf-725af1929ad5);}.f3d019f4-eb78-40d3-9b1f-74887b83a751{fill:#989898;}</style><linearGradient id="ba55b656-1e48-45f9-96bf-725af1929ad5" y1="64.75" x2="129.5" y2="64.75" gradientUnits="userSpaceOnUse"><stop offset="0" stop-color="#d33f8c"/><stop offset="1" stop-color="#0250c4"/></linearGradient></defs><g id="b45ef5d0-7f9c-4739-9a2b-8d0331f53a50" data-name="Layer 2"><g id="a188af36-1b58-40d5-9900-953952847eb6" data-name="Layer 3"><polygon class="a0bb42c9-f438-41fe-8e34-cbfc0b03d0a6" points="5.81 129.5 129.5 129.5 129.5 0.34 113.78 0.34 17.77 88.84 17.77 23.92 56.72 23.92 46.47 34.17 28.7 34.17 28.7 64.92 99.09 0 0 0 0 120.27 53.99 70.39 81.32 94.99 97.72 94.99 63.55 62.19 103.87 23.92 119.59 23.92 77.91 61.5 125.06 105.92 78.59 105.92 53.99 84.06 5.81 129.5"/><polygon points="232.06 25.07 214.48 25.07 196.03 43.53 186.36 43.53 186.36 25.07 168.78 25.07 168.78 74.29 186.36 74.29 186.36 55.84 196.03 55.84 214.48 74.29 232.06 74.29 207.45 49.68 232.06 25.07"/><path d="M280.53,42.65,264.71,74.29H247.13l24.61-49.22h17.57l24.61,49.22H296.35Z"/><path d="M316.62,25.07h56.25V39.14H316.62ZM336,46.17h17.58V74.29H336Z"/><path d="M405.51,58.47V74.29H387.94V46.17h33.39q5.28,0,5.28-3.52V40.9q0-3.52-5.28-3.52H387.94V25.07h42.18q14.07,0,14.07,12.31v8.79c0,2.41-1.18,4.46-3.52,6.15,2.34,1.69,3.52,3.74,3.52,6.15V74.29H426.61V62c0-2.34-1.76-3.52-5.28-3.52Z"/><path d="M459.26,25.07h17.58V74.29H459.26Z"/><path d="M551.49,62q0,12.3-14.06,12.3h-45.7V46.17h17.58V62h19.33q5.28,0,5.28-3.52V40.9q0-3.52-5.28-3.52H491.73V25.07h45.7q14.07,0,14.06,12.31Z"/><path class="f3d019f4-eb78-40d3-9b1f-74887b83a751" d="M178.48,98.58c0,3.56-2.33,5.73-6.12,5.73h-3.58V92.8h3.58C176.15,92.8,178.48,95,178.48,98.58Zm-6.12,4.49c3,0,4.58-1.68,4.58-4.49S175.37,94,172.36,94h-2.08v9Z"/><path class="f3d019f4-eb78-40d3-9b1f-74887b83a751" d="M190.79,94H186.1v3.85h4.19v1.24H186.1v4h4.69v1.24h-6.2V92.78h6.2Z"/><path class="f3d019f4-eb78-40d3-9b1f-74887b83a751" d="M200.85,104.43c-2.31,0-3.95-1.29-4-3.19h1.6a2.14,2.14,0,0,0,2.38,1.91c1.45,0,2.31-.82,2.31-1.91,0-3.11-6.22-1.13-6.22-5.4,0-1.9,1.53-3.19,3.81-3.19s3.64,1.2,3.82,2.95h-1.65a2.08,2.08,0,0,0-2.23-1.66c-1.24,0-2.22.61-2.22,1.85,0,3,6.21,1.12,6.21,5.38C204.68,102.81,203.35,104.43,200.85,104.43Z"/><path class="f3d019f4-eb78-40d3-9b1f-74887b83a751" d="M217.23,94h-4.7v3.85h4.2v1.24h-4.2v4h4.7v1.24H211V92.78h6.2Z"/><path class="f3d019f4-eb78-40d3-9b1f-74887b83a751" d="M232.69,92.78v11.53h-1.5l-6.05-9.17v9.17h-1.5V92.78h1.5l6.05,9.15V92.78Z"/><path class="f3d019f4-eb78-40d3-9b1f-74887b83a751" d="M247.32,92.8h1.58l-4.34,11.51h-1.74L238.48,92.8h1.6l3.62,9.92Z"/><path class="f3d019f4-eb78-40d3-9b1f-74887b83a751" d="M259.91,104.43a5.89,5.89,0,1,1,5.78-5.89A5.68,5.68,0,0,1,259.91,104.43Zm0-1.31c2.43,0,4.24-1.77,4.24-4.58S262.34,94,259.91,94s-4.25,1.75-4.25,4.57S257.48,103.12,259.91,103.12Z"/><path class="f3d019f4-eb78-40d3-9b1f-74887b83a751" d="M273.31,92.8v10.29h4v1.22h-5.53V92.8Z"/><path class="f3d019f4-eb78-40d3-9b1f-74887b83a751" d="M291,92.8h1.58l-4.34,11.51h-1.74L282.17,92.8h1.6l3.62,9.92Z"/><path class="f3d019f4-eb78-40d3-9b1f-74887b83a751" d="M298.38,92.8h1.5v11.51h-1.5Z"/><path class="f3d019f4-eb78-40d3-9b1f-74887b83a751" d="M306.58,92.88h1.61l4.23,9.45,4.23-9.45h1.6v11.43h-1.5V95.79l-3.8,8.52h-1.06l-3.81-8.54v8.54h-1.5Z"/><path class="f3d019f4-eb78-40d3-9b1f-74887b83a751" d="M331.13,94h-4.69v3.85h4.19v1.24h-4.19v4h4.69v1.24h-6.2V92.78h6.2Z"/><path class="f3d019f4-eb78-40d3-9b1f-74887b83a751" d="M346.59,92.78v11.53h-1.5l-6-9.17v9.17h-1.5V92.78H339l6,9.15V92.78Z"/><path class="f3d019f4-eb78-40d3-9b1f-74887b83a751" d="M352.58,92.8h7.79V94h-3.13v10.29h-1.51V94h-3.15Z"/><path class="f3d019f4-eb78-40d3-9b1f-74887b83a751" d="M371.58,104.43a5.89,5.89,0,1,1,5.78-5.89A5.68,5.68,0,0,1,371.58,104.43Zm0-1.31c2.43,0,4.24-1.77,4.24-4.58S374,94,371.58,94s-4.25,1.75-4.25,4.57S369.15,103.12,371.58,103.12Z"/><path class="f3d019f4-eb78-40d3-9b1f-74887b83a751" d="M398.22,94h-4.7v3.85h4.2v1.24h-4.2v4h4.7v1.24H392V92.78h6.2Z"/><path class="f3d019f4-eb78-40d3-9b1f-74887b83a751" d="M412.46,92.8h7.8V94h-3.14v10.29h-1.5V94h-3.16Z"/><path class="f3d019f4-eb78-40d3-9b1f-74887b83a751" d="M432.44,94h-4.69v3.85h4.19v1.24h-4.19v4h4.69v1.24h-6.2V92.78h6.2Z"/><path class="f3d019f4-eb78-40d3-9b1f-74887b83a751" d="M444,92.65a5.41,5.41,0,0,1,5.33,3.48h-1.8A3.62,3.62,0,0,0,444,94c-2.41,0-4.21,1.75-4.21,4.57s1.8,4.56,4.21,4.56a3.63,3.63,0,0,0,3.53-2.14h1.8a5.41,5.41,0,0,1-5.33,3.45,5.88,5.88,0,0,1,0-11.76Z"/><path class="f3d019f4-eb78-40d3-9b1f-74887b83a751" d="M464.79,92.78v11.53h-1.5l-6.05-9.17v9.17h-1.5V92.78h1.5l6.05,9.15V92.78Z"/><path class="f3d019f4-eb78-40d3-9b1f-74887b83a751" d="M476.71,104.43a5.89,5.89,0,1,1,5.78-5.89A5.69,5.69,0,0,1,476.71,104.43Zm0-1.31c2.42,0,4.24-1.77,4.24-4.58S479.13,94,476.71,94s-4.25,1.75-4.25,4.57S474.28,103.12,476.71,103.12Z"/><path class="f3d019f4-eb78-40d3-9b1f-74887b83a751" d="M490.11,92.8v10.29h4v1.22h-5.53V92.8Z"/><path class="f3d019f4-eb78-40d3-9b1f-74887b83a751" d="M505.1,104.43a5.89,5.89,0,1,1,5.78-5.89A5.69,5.69,0,0,1,505.1,104.43Zm0-1.31c2.42,0,4.24-1.77,4.24-4.58S507.52,94,505.1,94s-4.25,1.75-4.25,4.57S502.67,103.12,505.1,103.12Z"/><path class="f3d019f4-eb78-40d3-9b1f-74887b83a751" d="M527.52,96.13h-1.8A3.68,3.68,0,0,0,522.21,94a4.52,4.52,0,0,0,0,9,3.88,3.88,0,0,0,4-3.73h-4.59V98.1h6.19v1.15a5.58,5.58,0,0,1-5.65,5.16,5.88,5.88,0,0,1,0-11.75A5.46,5.46,0,0,1,527.52,96.13Z"/><path class="f3d019f4-eb78-40d3-9b1f-74887b83a751" d="M534,92.8h1.5v11.51H534Z"/><path class="f3d019f4-eb78-40d3-9b1f-74887b83a751" d="M549,101.75h-5l-.92,2.56h-1.59l4.16-11.45h1.74l4.14,11.45h-1.58Zm-2.51-7-2.08,5.82h4.16Z"/></g></g></svg>