<svg xmlns="http://www.w3.org/2000/svg" xmlns:xlink="http://www.w3.org/1999/xlink" version="1.1"  x="0px" y="0px" viewBox="0 0 38 38" style="enable-background:new 0 0 38 38;" xml:space="preserve" width="32" height="32" viewbox="0 0 32 32">

<path id="2683295628_shock_x5F_color_grid" class="stshockcolor" d="M10,10v26h24V10H10z M16.9,28c0.5-0.6,0.9-1.3,1-2.1c0.7,0.2,1.4,0.2,2.1,0  c0.1,0.9,0.5,1.5,1,2.1H16.9z M22,16v5c0,1.7-1.3,3-3,3c-1.6,0-3-1.3-3-3v-4c0-1.6,1.4-3,3-3h3V16z" style="fill:#D6B196;;"></path>
<path class="st1" d="M32,34V8H8V6h26v30H7.5C5.6,36,4,34.2,4,32V6c0-2.2,1.6-4,3.5-4H34v2H7.5C6.7,4,6,4.9,6,6v26c0,1.1,0.7,2,1.5,2  H32z M23.6,27.4C22.7,27,22,26.2,22,25c1.2-0.9,2-2.4,2-4v-5h-2v5c0,1.7-1.3,3-3,3c-1.6,0-3-1.3-3-3v-4c0-1.6,1.4-3,3-3h5v-2h-5  c-2.8,0-5,2.2-5,5v4c0,1.6,0.8,3.1,2,4c0,2.5-2.9,3-4,3v2h14v-2C25.4,28,24.4,27.9,23.6,27.4z M16.9,28c0.5-0.6,0.9-1.3,1-2.1  c0.7,0.2,1.4,0.2,2.1,0c0.1,0.9,0.5,1.5,1,2.1H16.9z" style="opacity:0.8;fill:#231F20;;"></path>
</svg>